<svg width="140" height="140" viewBox="0 0 140 140" fill="none" xmlns="http://www.w3.org/2000/svg">
<path d="M70 140C108.66 140 140 108.66 140 70C140 31.3401 108.66 0 70 0C31.3401 0 0 31.3401 0 70C0 108.66 31.3401 140 70 140Z" fill="#4CAF50"/>
<path d="M70 134C105.346 134 134 105.346 134 70C134 34.6538 105.346 6 70 6C34.6538 6 6 34.6538 6 70C6 105.346 34.6538 134 70 134Z" fill="#6B28D9"/>
<path d="M30.0515 78.728V73.64H38.9155V97H33.2195V78.728H30.0515ZM42.6588 85C42.6588 81.3307 43.3628 78.44 44.7708 76.328C46.2001 74.216 48.4934 73.16 51.6508 73.16C54.8081 73.16 57.0908 74.216 58.4988 76.328C59.9281 78.44 60.6428 81.3307 60.6428 85C60.6428 88.712 59.9281 91.624 58.4988 93.736C57.0908 95.848 54.8081 96.904 51.6508 96.904C48.4934 96.904 46.2001 95.848 44.7708 93.736C43.3628 91.624 42.6588 88.712 42.6588 85ZM55.2668 85C55.2668 82.8453 55.0321 81.192 54.5628 80.04C54.0934 78.8667 53.1228 78.28 51.6508 78.28C50.1788 78.28 49.2081 78.8667 48.7388 80.04C48.2694 81.192 48.0348 82.8453 48.0348 85C48.0348 86.4507 48.1201 87.656 48.2908 88.616C48.4614 89.5547 48.8028 90.3227 49.3148 90.92C49.8481 91.496 50.6268 91.784 51.6508 91.784C52.6748 91.784 53.4428 91.496 53.9548 90.92C54.4881 90.3227 54.8401 89.5547 55.0108 88.616C55.1814 87.656 55.2668 86.4507 55.2668 85ZM63.5338 85C63.5338 81.3307 64.2378 78.44 65.6458 76.328C67.0751 74.216 69.3684 73.16 72.5258 73.16C75.6831 73.16 77.9658 74.216 79.3738 76.328C80.8031 78.44 81.5178 81.3307 81.5178 85C81.5178 88.712 80.8031 91.624 79.3738 93.736C77.9658 95.848 75.6831 96.904 72.5258 96.904C69.3684 96.904 67.0751 95.848 65.6458 93.736C64.2378 91.624 63.5338 88.712 63.5338 85ZM76.1418 85C76.1418 82.8453 75.9071 81.192 75.4378 80.04C74.9684 78.8667 73.9978 78.28 72.5258 78.28C71.0538 78.28 70.0831 78.8667 69.6138 80.04C69.1444 81.192 68.9098 82.8453 68.9098 85C68.9098 86.4507 68.9951 87.656 69.1658 88.616C69.3364 89.5547 69.6778 90.3227 70.1898 90.92C70.7231 91.496 71.5018 91.784 72.5258 91.784C73.5498 91.784 74.3178 91.496 74.8298 90.92C75.3631 90.3227 75.7151 89.5547 75.8858 88.616C76.0564 87.656 76.1418 86.4507 76.1418 85ZM83.9608 79.528C83.9608 77.8 84.4514 76.4667 85.4328 75.528C86.4354 74.5893 87.7261 74.12 89.3048 74.12C90.8834 74.12 92.1634 74.5893 93.1448 75.528C94.1261 76.4667 94.6168 77.8 94.6168 79.528C94.6168 81.256 94.1261 82.5893 93.1448 83.528C92.1634 84.4667 90.8834 84.936 89.3048 84.936C87.7261 84.936 86.4354 84.4667 85.4328 83.528C84.4514 82.5893 83.9608 81.256 83.9608 79.528ZM105.689 74.472L93.3688 97H88.0888L100.409 74.472H105.689ZM89.2728 77.32C88.2488 77.32 87.7368 78.056 87.7368 79.528C87.7368 80.9787 88.2488 81.704 89.2728 81.704C89.7634 81.704 90.1474 81.5227 90.4248 81.16C90.7021 80.7973 90.8408 80.2533 90.8408 79.528C90.8408 78.056 90.3181 77.32 89.2728 77.32ZM99.1928 91.944C99.1928 90.216 99.6834 88.8827 100.665 87.944C101.646 87.0053 102.926 86.536 104.505 86.536C106.083 86.536 107.363 87.0053 108.345 87.944C109.326 88.8827 109.817 90.216 109.817 91.944C109.817 93.672 109.326 95.0053 108.345 95.944C107.363 96.8827 106.083 97.352 104.505 97.352C102.926 97.352 101.646 96.8827 100.665 95.944C99.6834 95.0053 99.1928 93.672 99.1928 91.944ZM104.473 89.736C103.982 89.736 103.598 89.9173 103.321 90.28C103.065 90.6427 102.937 91.1973 102.937 91.944C102.937 93.3947 103.449 94.12 104.473 94.12C104.963 94.12 105.347 93.9387 105.625 93.576C105.902 93.2133 106.041 92.6693 106.041 91.944C106.041 91.2187 105.902 90.6747 105.625 90.312C105.347 89.928 104.963 89.736 104.473 89.736Z" fill="#4CAF50"/>
<path d="M38.3439 41.48C38.0399 40.92 37.5999 40.496 37.0239 40.208C36.4639 39.904 35.7999 39.752 35.0319 39.752C33.7039 39.752 32.6399 40.192 31.8399 41.072C31.0399 41.936 30.6399 43.096 30.6399 44.552C30.6399 46.104 31.0559 47.32 31.8879 48.2C32.7359 49.064 33.8959 49.496 35.3679 49.496C36.3759 49.496 37.2239 49.24 37.9119 48.728C38.6159 48.216 39.1279 47.48 39.4479 46.52H34.2399V43.496H43.1679V47.312C42.8639 48.336 42.3439 49.288 41.6079 50.168C40.8879 51.048 39.9679 51.76 38.8479 52.304C37.7279 52.848 36.4639 53.12 35.0559 53.12C33.3919 53.12 31.9039 52.76 30.5919 52.04C29.2959 51.304 28.2799 50.288 27.5439 48.992C26.8239 47.696 26.4639 46.216 26.4639 44.552C26.4639 42.888 26.8239 41.408 27.5439 40.112C28.2799 38.8 29.2959 37.784 30.5919 37.064C31.8879 36.328 33.3679 35.96 35.0319 35.96C37.0479 35.96 38.7439 36.448 40.1199 37.424C41.5119 38.4 42.4319 39.752 42.8799 41.48H38.3439ZM54.0331 53L50.5291 46.64H49.5451V53H45.4411V36.152H52.3291C53.6571 36.152 54.7851 36.384 55.7131 36.848C56.6571 37.312 57.3611 37.952 57.8251 38.768C58.2891 39.568 58.5211 40.464 58.5211 41.456C58.5211 42.576 58.2011 43.576 57.5611 44.456C56.9371 45.336 56.0091 45.96 54.7771 46.328L58.6651 53H54.0331ZM49.5451 43.736H52.0891C52.8411 43.736 53.4011 43.552 53.7691 43.184C54.1531 42.816 54.3451 42.296 54.3451 41.624C54.3451 40.984 54.1531 40.48 53.7691 40.112C53.4011 39.744 52.8411 39.56 52.0891 39.56H49.5451V43.736ZM71.5854 50.024H65.2974L64.2894 53H59.9934L66.0894 36.152H70.8414L76.9374 53H72.5934L71.5854 50.024ZM70.5294 46.856L68.4414 40.688L66.3774 46.856H70.5294ZM71.2494 32.768L65.4654 35.192V32.36L71.2494 29.576V32.768ZM90.9127 36.152V39.44H86.4487V53H82.3447V39.44H77.8807V36.152H90.9127ZM97.0764 36.152V53H92.9724V36.152H97.0764ZM106.147 53.168C104.915 53.168 103.811 52.968 102.835 52.568C101.859 52.168 101.075 51.576 100.483 50.792C99.9065 50.008 99.6025 49.064 99.5705 47.96H103.939C104.003 48.584 104.219 49.064 104.587 49.4C104.955 49.72 105.435 49.88 106.027 49.88C106.635 49.88 107.115 49.744 107.467 49.472C107.819 49.184 107.995 48.792 107.995 48.296C107.995 47.88 107.851 47.536 107.563 47.264C107.291 46.992 106.947 46.768 106.531 46.592C106.131 46.416 105.555 46.216 104.803 45.992C103.715 45.656 102.827 45.32 102.139 44.984C101.451 44.648 100.859 44.152 100.363 43.496C99.8665 42.84 99.6185 41.984 99.6185 40.928C99.6185 39.36 100.187 38.136 101.323 37.256C102.459 36.36 103.939 35.912 105.763 35.912C107.619 35.912 109.115 36.36 110.251 37.256C111.387 38.136 111.995 39.368 112.075 40.952H107.635C107.603 40.408 107.403 39.984 107.035 39.68C106.667 39.36 106.195 39.2 105.618 39.2C105.123 39.2 104.723 39.336 104.419 39.608C104.115 39.864 103.963 40.24 103.963 40.736C103.963 41.28 104.219 41.704 104.73 42.008C105.243 42.312 106.043 42.64 107.131 42.992C108.219 43.36 109.099 43.712 109.771 44.048C110.459 44.384 111.051 44.872 111.547 45.512C112.043 46.152 112.291 46.976 112.291 47.984C112.291 48.944 112.043 49.816 111.547 50.6C111.067 51.384 110.363 52.008 109.435 52.472C108.507 52.936 107.411 53.168 106.147 53.168Z" fill="#4CAF50"/>
</svg>
