<svg width="150" height="176" viewBox="0 0 150 176" fill="none" xmlns="http://www.w3.org/2000/svg">
<path d="M136.25 2.25H13.75C6.98451 2.25 1.5 7.73451 1.5 14.5V161.5C1.5 168.265 6.98451 173.75 13.75 173.75H136.25C143.015 173.75 148.5 168.265 148.5 161.5V14.5C148.5 7.73451 143.015 2.25 136.25 2.25Z" stroke="white" stroke-width="3"/>
<path d="M145.438 39L111.75 5.3125V39H145.438Z" stroke="white" stroke-width="3"/>
<path d="M93.375 69.625H56.625C46.4768 69.625 38.25 77.8518 38.25 88C38.25 98.1482 46.4768 106.375 56.625 106.375H93.375C103.523 106.375 111.75 98.1482 111.75 88C111.75 77.8518 103.523 69.625 93.375 69.625Z" stroke="white" stroke-width="3"/>
<path d="M62.9453 90.75L63.3203 88.9453L69.9141 81.2109H64.5781L64.9766 79.2969H73.2344L72.8906 81.0938L66.2266 88.875C66.9349 88.8594 67.3438 88.8516 67.4531 88.8516C67.9531 88.8516 68.6432 88.8464 69.5234 88.8359H72.2266L71.8281 90.75H62.9453ZM72.8828 90.75L75.2812 79.2969H77.6328L75.2422 90.75H72.8828ZM79.7891 90.75H77.4297L79.8281 79.2969H84.4844C85.3125 79.2969 85.9661 79.3958 86.4453 79.5938C86.9297 79.7865 87.3125 80.1094 87.5938 80.5625C87.875 81.0104 88.0156 81.5469 88.0156 82.1719C88.0156 82.75 87.9036 83.3125 87.6797 83.8594C87.4557 84.4062 87.1797 84.8438 86.8516 85.1719C86.5286 85.5 86.1797 85.75 85.8047 85.9219C85.4297 86.0885 84.9245 86.2161 84.2891 86.3047C83.9193 86.3568 83.2266 86.3828 82.2109 86.3828H80.7031L79.7891 90.75ZM81.0938 84.4844H81.8203C83.0651 84.4844 83.8958 84.4062 84.3125 84.25C84.7292 84.0938 85.0573 83.8438 85.2969 83.5C85.5365 83.1562 85.6562 82.7786 85.6562 82.3672C85.6562 82.0911 85.5938 81.8646 85.4688 81.6875C85.349 81.5104 85.1771 81.3828 84.9531 81.3047C84.7344 81.2214 84.2422 81.1797 83.4766 81.1797H81.7891L81.0938 84.4844Z" fill="white"/>
<path d="M38.25 124.75H111.75" stroke="white" stroke-width="3" stroke-dasharray="3 1"/>
<path d="M38.25 137H111.75" stroke="white" stroke-width="3" stroke-dasharray="3 1"/>
<path d="M38.25 149.25H111.75" stroke="white" stroke-width="3" stroke-dasharray="3 1"/>
</svg>
