<svg width="126" height="176" viewBox="0 0 126 176" fill="none" xmlns="http://www.w3.org/2000/svg">
<path d="M1.75 2.25H99.75L124.25 26.75V173.75H1.75V2.25Z" stroke="white" stroke-width="3"/>
<path d="M99.75 2.25V26.75H124.25" stroke="white" stroke-width="3"/>
<path d="M87.5 57.375H38.5C35.1173 57.375 32.375 60.1173 32.375 63.5V112.5C32.375 115.883 35.1173 118.625 38.5 118.625H87.5C90.8827 118.625 93.625 115.883 93.625 112.5V63.5C93.625 60.1173 90.8827 57.375 87.5 57.375Z" stroke="white" stroke-width="3"/>
<path d="M50 95H47.6406L50.0391 83.5469H54.6953C55.5234 83.5469 56.1771 83.6458 56.6562 83.8438C57.1406 84.0365 57.5234 84.3594 57.8047 84.8125C58.0859 85.2604 58.2266 85.7969 58.2266 86.4219C58.2266 87 58.1146 87.5625 57.8906 88.1094C57.6667 88.6562 57.3906 89.0938 57.0625 89.4219C56.7396 89.75 56.3906 90 56.0156 90.1719C55.6406 90.3385 55.1354 90.4661 54.5 90.5547C54.1302 90.6068 53.4375 90.6328 52.4219 90.6328H50.9141L50 95ZM51.3047 88.7344H52.0312C53.276 88.7344 54.1068 88.6562 54.5234 88.5C54.9401 88.3438 55.2682 88.0938 55.5078 87.75C55.7474 87.4062 55.8672 87.0286 55.8672 86.6172C55.8672 86.3411 55.8047 86.1146 55.6797 85.9375C55.5599 85.7604 55.388 85.6328 55.1641 85.5547C54.9453 85.4714 54.4531 85.4297 53.6875 85.4297H52L51.3047 88.7344ZM58.3594 95L60.7578 83.5469H63.8438C64.7031 83.5469 65.2526 83.5599 65.4922 83.5859C65.9661 83.6328 66.388 83.7292 66.7578 83.875C67.1328 84.0208 67.4714 84.2266 67.7734 84.4922C68.0807 84.7526 68.3438 85.0677 68.5625 85.4375C68.7865 85.8073 68.9583 86.2344 69.0781 86.7188C69.1979 87.1979 69.2578 87.724 69.2578 88.2969C69.2578 89.5312 69.0208 90.6276 68.5469 91.5859C68.0781 92.5391 67.487 93.2969 66.7734 93.8594C66.2266 94.2969 65.5208 94.6198 64.6562 94.8281C64.1667 94.9427 63.4141 95 62.3984 95H58.3594ZM61.1016 93.1562H62.2969C63.1615 93.1562 63.7865 93.1042 64.1719 93C64.5625 92.8906 64.9193 92.6901 65.2422 92.3984C65.7057 91.9766 66.0964 91.4141 66.4141 90.7109C66.7318 90.0078 66.8906 89.1797 66.8906 88.2266C66.8906 87.4141 66.7578 86.8047 66.4922 86.3984C66.2318 85.987 65.9089 85.7135 65.5234 85.5781C65.2526 85.4844 64.7708 85.4375 64.0781 85.4375H62.7109L61.1016 93.1562ZM69.8516 95L72.25 83.5469H80.2656L79.8594 85.4609H74.2031L73.625 88.2109H79.1719L78.7734 90.125H73.2266L72.2109 95H69.8516Z" fill="white"/>
<path d="M17.0625 130.875H108.938" stroke="white" stroke-width="3"/>
<path d="M17.0625 143.125H108.938" stroke="white" stroke-width="3"/>
<path d="M17.0625 155.375H72.1875" stroke="white" stroke-width="3"/>
</svg>
