<svg width="150" height="176" viewBox="0 0 150 176" fill="none" xmlns="http://www.w3.org/2000/svg">
<path d="M136.25 2.25H13.75C6.98451 2.25 1.5 7.73451 1.5 14.5V161.5C1.5 168.265 6.98451 173.75 13.75 173.75H136.25C143.015 173.75 148.5 168.265 148.5 161.5V14.5C148.5 7.73451 143.015 2.25 136.25 2.25Z" stroke="white" stroke-width="3"/>
<path d="M146 40L106 5V40H146Z" stroke="white" stroke-width="3"/>
<path d="M50 65C63.2548 65 74 54.2548 74 41C74 27.7452 63.2548 17 50 17C36.7452 17 26 27.7452 26 41C26 54.2548 36.7452 65 50 65Z" stroke="white" stroke-width="3"/>
<path d="M50 39C52.7614 39 55 36.7614 55 34C55 31.2386 52.7614 29 50 29C47.2386 29 45 31.2386 45 34C45 36.7614 47.2386 39 50 39Z" fill="white"/>
<path d="M38.125 51.375C38.125 42.1875 44.25 42.1875 50.375 42.1875C56.5 42.1875 62.625 42.1875 62.625 51.375" stroke="white" stroke-width="3"/>
<path d="M84 66H116" stroke="white" stroke-width="3"/>
<path d="M84 54H116" stroke="white" stroke-width="3"/>
<path d="M26 81.875H124" stroke="white" stroke-width="3"/>
<path d="M26 97.1875H124" stroke="white" stroke-width="3"/>
<path d="M26 112.5H124" stroke="white" stroke-width="3"/>
<path d="M26 127.812H124" stroke="white" stroke-width="3"/>
<path d="M26 143.125H87.25" stroke="white" stroke-width="3"/>
</svg>
