<svg width="64" height="64" viewBox="0 0 64 64" fill="none" xmlns="http://www.w3.org/2000/svg">
  <defs>
    <linearGradient id="modernGradient" x1="0%" y1="0%" x2="100%" y2="100%">
      <stop offset="0%" style="stop-color: #C026D3;stop-opacity:1" />
      <stop offset="50%" style="stop-color:#8B5CF6;stop-opacity:1" />
      <stop offset="100%" style="stop-color:#4C1D95;stop-opacity:1" />
    </linearGradient>
    <filter id="glow">
      <feGaussianBlur stdDeviation="2" result="coloredBlur"/>
      <feMerge> 
        <feMergeNode in="coloredBlur"/>
        <feMergeNode in="SourceGraphic"/>
      </feMerge>
    </filter>
  </defs>
  
  <!-- Sombra -->
  <ellipse cx="32" cy="58" rx="20" ry="3" fill="#000000" opacity="0.1"/>
  
  <!-- Corpo principal -->
  <rect x="12" y="16" width="40" height="32" rx="16" fill="url(#modernGradient)" filter="url(#glow)"/>
  
  <!-- Tela/interface -->
  <rect x="16" y="20" width="32" height="24" rx="12" fill="#1F2937" stroke="#374151" stroke-width="1"/>
  
  <!-- Olhos como displays -->
  <rect x="19" y="26" width="10" height="7" rx="3" fill="white"/>
  <rect x="35" y="26" width="10" height="7" rx="3" fill="white"/>
  
  <!-- Pequenos pixels nos olhos -->
  <rect x="22" y="28" width="4" height="3" rx="4" fill="#6B28D9"/>
  <rect x="38" y="28" width="4" height="3" rx="4" fill="#6B28D9"/>

  <!-- Boca como barra de progresso -->
  <path d="M24 38 Q32 42 40 38" stroke="white" stroke-width="4" stroke-linecap="round" fill="none"/>
  
  <!-- Indicador de status -->
  <circle cx="52" cy="20" r="3" fill="#10B981"/>
  <circle cx="52" cy="20" r="2" fill="#34D399" opacity="0.8"/>
  
  <!-- Linhas de conexão -->
  <path d="M8 32 L12 32" stroke="url(#modernGradient)" stroke-width="2" opacity="0.6"/>
  <path d="M52 32 L56 32" stroke="url(#modernGradient)" stroke-width="2" opacity="0.6"/>
  
  <!-- Base/suporte -->
  <rect x="28" y="48" width="8" height="4" rx="2" fill="url(#modernGradient)" opacity="0.7"/>
</svg>